<?xml version="1.0" encoding="UTF-8" standalone="no"?>
<!DOCTYPE svg PUBLIC "-//W3C//DTD SVG 1.1//EN" "http://www.w3.org/Graphics/SVG/1.1/DTD/svg11.dtd">
<svg width="100%" height="100%" viewBox="0 0 470 90" version="1.1" xmlns="http://www.w3.org/2000/svg" xmlns:xlink="http://www.w3.org/1999/xlink" xml:space="preserve" xmlns:serif="http://www.serif.com/" style="fill-rule:evenodd;clip-rule:evenodd;stroke-linejoin:round;stroke-miterlimit:2;">
    <g>
        <g transform="matrix(1.046512,0,0,1.046512,-10.465116,-12.034884)">
            <g transform="matrix(1,0,0,1,3.822222,4.777778)">
                <circle cx="45" cy="55" r="9" style="fill:rgb(80,70,230);"/>
            </g>
            <g transform="matrix(1,0,0,1,3.822222,4.777778)">
                <path d="M45,55L75,25" style="fill:none;fill-rule:nonzero;"/>
            </g>
            <g transform="matrix(1,0,0,1,3.822222,4.777778)">
                <path d="M46.858,56.858L43.142,53.142L73.142,23.142L76.858,26.858L46.858,56.858Z" style="fill:rgb(80,70,230);"/>
            </g>
            <g transform="matrix(1,0,0,1,3.822222,4.777778)">
                <circle cx="75" cy="25" r="7" style="fill:rgb(80,70,230);"/>
            </g>
            <g transform="matrix(1,0,0,1,3.822222,4.777778)">
                <path d="M45,55L85,70" style="fill:none;fill-rule:nonzero;"/>
            </g>
            <g transform="matrix(1,0,0,1,3.822222,4.777778)">
                <path d="M44.329,56.789L45.671,53.211L85.671,68.211L84.329,71.789L44.329,56.789Z" style="fill:rgb(80,70,230);"/>
            </g>
            <g transform="matrix(1,0,0,1,3.822222,4.777778)">
                <circle cx="85" cy="70" r="5" style="fill:rgb(80,70,230);"/>
            </g>
            <g transform="matrix(1,0,0,1,3.822222,4.777778)">
                <path d="M45,55L30,80" style="fill:none;fill-rule:nonzero;"/>
            </g>
            <g transform="matrix(1,0,0,1,3.822222,4.777778)">
                <path d="M41.927,53.156L48.073,56.844L33.073,81.844L26.927,78.156L41.927,53.156Z" style="fill:rgb(80,70,230);"/>
            </g>
            <g transform="matrix(1,0,0,1,3.822222,4.777778)">
                <circle cx="30" cy="80" r="8" style="fill:rgb(80,70,230);"/>
            </g>
            <g transform="matrix(1,0,0,1,3.822222,4.777778)">
                <path d="M45,55L15,40" style="fill:none;fill-rule:nonzero;"/>
            </g>
            <g transform="matrix(1,0,0,1,3.822222,4.777778)">
                <path d="M45.534,53.932L44.466,56.068L14.466,41.068L15.534,38.932L45.534,53.932Z" style="fill:rgb(80,70,230);"/>
            </g>
            <g transform="matrix(1,0,0,1,3.822222,4.777778)">
                <circle cx="15" cy="40" r="4.5" style="fill:rgb(80,70,230);"/>
            </g>
            <g transform="matrix(1,0,0,1,3.822222,4.777778)">
                <path d="M45,55L55,15" style="fill:rgb(80,70,230);fill-rule:nonzero;"/>
            </g>
            <g transform="matrix(1,0,0,1,3.822222,4.777778)">
                <path d="M46.622,55.406L43.378,54.594L53.378,14.594L56.622,15.406L46.622,55.406Z" style="fill:rgb(80,70,230);"/>
            </g>
            <g transform="matrix(1,0,0,1,3.822222,4.777778)">
                <circle cx="55" cy="15" r="4" style="fill:rgb(80,70,230);"/>
            </g>
            <g transform="matrix(1,0,0,1,3.822222,4.777778)">
                <path d="M45,55L25,25" style="fill:none;fill-rule:nonzero;"/>
            </g>
            <g transform="matrix(1,0,0,1,3.822222,4.777778)">
                <path d="M46.789,53.807L43.211,56.193L23.211,26.193L26.789,23.807L46.789,53.807Z" style="fill:rgb(80,70,230);"/>
            </g>
            <g transform="matrix(1,0,0,1,3.822222,4.777778)">
                <circle cx="25" cy="25" r="5" style="fill:rgb(80,70,230);"/>
            </g>
            <g transform="matrix(1,0,0,1,3.822222,4.777778)">
                <path d="M45,55L70,45" style="fill:none;fill-rule:nonzero;"/>
            </g>
            <g transform="matrix(1,0,0,1,3.822222,4.777778)">
                <path d="M45.444,56.109L44.556,53.891L69.556,43.891L70.444,46.109L45.444,56.109Z" style="fill:rgb(80,70,230);"/>
            </g>
            <g transform="matrix(1,0,0,1,3.822222,4.777778)">
                <circle cx="70" cy="45" r="3" style="fill:rgb(80,70,230);"/>
            </g>
        </g>
    </g>
    <g>
        <g transform="matrix(1.342466,0,0,1.328204,272.086823,64.296994)">
            <path d="M18.922,0L0,0L0,-33.234L8.07,-33.258L8.07,-7.594L21.078,-7.594L18.922,0Z" style="fill:rgb(80,70,230);"/>
            <path d="M29.581,-23.977L29.581,0.047L22.184,0.047L22.184,-23.953L29.581,-23.977ZM29.604,-30.773C29.604,-30.023 29.434,-29.359 29.094,-28.781C28.754,-28.203 28.29,-27.734 27.702,-27.375C27.115,-27.016 26.466,-26.836 25.755,-26.836C25.044,-26.836 24.402,-27.008 23.83,-27.352C23.243,-27.711 22.779,-28.188 22.439,-28.781C22.083,-29.406 21.905,-30.07 21.905,-30.773C21.905,-31.492 22.075,-32.148 22.415,-32.742C22.787,-33.352 23.258,-33.828 23.83,-34.172C24.402,-34.516 25.044,-34.688 25.755,-34.688C26.466,-34.688 27.115,-34.516 27.702,-34.172C28.274,-33.828 28.738,-33.352 29.094,-32.742C29.434,-32.148 29.604,-31.492 29.604,-30.773Z" style="fill:rgb(80,70,230);"/>
            <path d="M34.187,-7.547C35.656,-6.062 37.449,-5.32 39.567,-5.32C41.778,-5.32 42.883,-5.977 42.883,-7.289C42.883,-7.977 42.273,-8.484 41.051,-8.812C40.186,-9.016 38.81,-9.367 36.924,-9.867C35.393,-10.273 34.102,-11.023 33.051,-12.117C32.015,-13.195 31.498,-14.852 31.498,-17.086C31.498,-18.805 31.923,-20.258 32.773,-21.445C33.639,-22.633 34.759,-23.508 36.135,-24.07C37.542,-24.648 39.08,-24.938 40.75,-24.938C41.693,-24.938 42.651,-24.805 43.625,-24.539C44.676,-24.211 45.619,-23.805 46.454,-23.32C47.366,-22.805 48.17,-22.227 48.866,-21.586L44.785,-17.484C43.594,-18.391 42.296,-18.844 40.889,-18.844C39.204,-18.844 38.361,-18.367 38.361,-17.414C38.361,-16.555 38.987,-15.953 40.24,-15.609C41.616,-15.234 42.999,-14.883 44.39,-14.555C45.921,-14.164 47.196,-13.445 48.217,-12.398C49.252,-11.336 49.77,-9.664 49.77,-7.383C49.77,-5.68 49.322,-4.211 48.425,-2.977C47.529,-1.727 46.331,-0.797 44.831,-0.188C43.331,0.453 41.778,0.773 40.17,0.773C38.825,0.773 37.612,0.664 36.529,0.445C35.447,0.242 34.435,-0.102 33.492,-0.586C32.518,-1.07 31.498,-1.719 30.431,-2.531L34.187,-7.547Z" style="fill:rgb(80,70,230);"/>
            <path d="M53.779,-17.602L48.886,-17.602L50.556,-24.023L53.779,-24.023L53.779,-33.258L61.176,-33.211L61.176,-24.023L66.092,-24.023L64.446,-17.602L61.176,-17.602L61.176,-9.656C61.176,-7.531 62.49,-6.469 65.118,-6.469C65.968,-6.469 66.618,-6.57 67.066,-6.773L64.933,0.68C64.546,0.742 64.167,0.773 63.796,0.773C61.586,0.773 59.746,0.414 58.278,-0.305C56.793,-1.023 55.673,-2.109 54.915,-3.562C54.158,-5 53.779,-6.836 53.779,-9.07L53.779,-17.602Z" style="fill:rgb(80,70,230);"/>
            <path d="M81.481,0.773C79.116,0.773 76.882,0.211 74.78,-0.914C72.678,-2.039 71.008,-3.578 69.771,-5.531C68.519,-7.5 67.893,-9.703 67.893,-12.141C67.893,-13.969 68.256,-15.672 68.983,-17.25C69.709,-18.828 70.707,-20.195 71.974,-21.352C73.257,-22.523 74.718,-23.422 76.357,-24.047C78.026,-24.672 79.735,-24.984 81.481,-24.984C83.244,-24.984 84.96,-24.672 86.629,-24.047C88.252,-23.453 89.713,-22.562 91.012,-21.375C92.295,-20.188 93.292,-18.812 94.003,-17.25C94.73,-15.672 95.093,-13.969 95.093,-12.141C95.093,-10.281 94.738,-8.578 94.026,-7.031C93.315,-5.469 92.31,-4.086 91.012,-2.883C89.698,-1.695 88.237,-0.797 86.629,-0.188C85.006,0.453 83.29,0.773 81.481,0.773ZM75.29,-12.141C75.29,-10.469 75.908,-9.031 77.145,-7.828C78.366,-6.625 79.812,-6.023 81.481,-6.023C83.166,-6.023 84.62,-6.625 85.841,-7.828C87.078,-9.031 87.696,-10.469 87.696,-12.141C87.696,-13.234 87.41,-14.242 86.838,-15.164C86.266,-16.086 85.501,-16.82 84.542,-17.367C83.599,-17.914 82.579,-18.188 81.481,-18.188C80.415,-18.188 79.402,-17.914 78.444,-17.367C77.485,-16.82 76.72,-16.086 76.148,-15.164C75.576,-14.242 75.29,-13.234 75.29,-12.141Z" style="fill:rgb(80,70,230);"/>
        </g>
        <g transform="matrix(1.342466,0,0,1.328204,398.128432,64.326369)">
            <path d="M0,-2.029C0,-2.449 0.106,-2.83 0.318,-3.172C0.538,-3.532 0.822,-3.81 1.169,-4.007C1.525,-4.213 1.902,-4.315 2.3,-4.315C2.698,-4.315 3.075,-4.213 3.431,-4.007C3.778,-3.793 4.058,-3.511 4.27,-3.159C4.481,-2.817 4.587,-2.44 4.587,-2.029C4.587,-1.344 4.367,-0.779 3.926,-0.334C3.477,0.12 2.935,0.347 2.3,0.347C1.876,0.347 1.491,0.244 1.144,0.039C0.788,-0.167 0.508,-0.454 0.305,-0.822C0.102,-1.199 0,-1.601 0,-2.029Z" style="fill:rgb(53,53,54);"/>
            <path d="M15.053,-9.183C14.689,-9.491 14.291,-9.722 13.859,-9.877C13.41,-10.031 12.936,-10.108 12.436,-10.108C11.504,-10.108 10.716,-9.804 10.072,-9.196C9.42,-8.588 9.094,-7.834 9.094,-6.935C9.094,-6.233 9.234,-5.604 9.513,-5.047C9.784,-4.491 10.187,-4.05 10.72,-3.725C11.237,-3.391 11.834,-3.224 12.512,-3.224C13.512,-3.224 14.367,-3.545 15.079,-4.187L17.303,-1.336C16.981,-0.993 16.532,-0.689 15.956,-0.424C15.371,-0.158 14.77,0.039 14.151,0.167C13.533,0.295 12.961,0.36 12.436,0.36C10.962,0.36 9.661,0.047 8.535,-0.578C7.408,-1.212 6.544,-2.042 5.943,-3.07C5.341,-4.114 5.04,-5.232 5.04,-6.422C5.04,-7.509 5.223,-8.494 5.587,-9.376C5.96,-10.275 6.472,-11.045 7.124,-11.688C7.768,-12.313 8.552,-12.805 9.475,-13.164C10.39,-13.516 11.377,-13.691 12.436,-13.691C13.3,-13.691 14.143,-13.554 14.965,-13.28C15.795,-12.998 16.527,-12.599 17.163,-12.086L15.053,-9.183Z" style="fill:rgb(53,53,54);"/>
            <path d="M23.764,0.424C22.468,0.424 21.243,0.116 20.091,-0.501C18.939,-1.117 18.024,-1.961 17.347,-3.031C16.66,-4.11 16.317,-5.317 16.317,-6.653C16.317,-7.655 16.516,-8.588 16.915,-9.453C17.313,-10.318 17.859,-11.067 18.554,-11.7C19.257,-12.343 20.057,-12.835 20.955,-13.177C21.87,-13.52 22.806,-13.691 23.764,-13.691C24.729,-13.691 25.67,-13.52 26.585,-13.177C27.474,-12.852 28.275,-12.364 28.986,-11.713C29.689,-11.062 30.236,-10.309 30.625,-9.453C31.024,-8.588 31.223,-7.655 31.223,-6.653C31.223,-5.634 31.028,-4.701 30.638,-3.853C30.248,-2.997 29.698,-2.239 28.986,-1.58C28.266,-0.929 27.466,-0.437 26.585,-0.103C25.695,0.248 24.755,0.424 23.764,0.424ZM20.371,-6.653C20.371,-5.737 20.71,-4.949 21.387,-4.29C22.057,-3.63 22.849,-3.301 23.764,-3.301C24.687,-3.301 25.483,-3.63 26.153,-4.29C26.83,-4.949 27.169,-5.737 27.169,-6.653C27.169,-7.252 27.012,-7.805 26.699,-8.31C26.385,-8.815 25.966,-9.217 25.441,-9.517C24.924,-9.817 24.365,-9.966 23.764,-9.966C23.179,-9.966 22.624,-9.817 22.099,-9.517C21.574,-9.217 21.154,-8.815 20.841,-8.31C20.528,-7.805 20.371,-7.252 20.371,-6.653Z" style="fill:rgb(53,53,54);"/>
            <path d="M43.188,-8.079L43.188,0.013L39.109,0.013L39.109,-8.079C39.042,-9.286 38.529,-9.907 37.572,-9.941L37.343,-9.941C36.31,-9.907 35.793,-9.183 35.793,-7.77L35.793,0.013L31.727,0.013L31.727,-7.77C31.727,-11.495 33.599,-13.46 37.343,-13.665L37.572,-13.665C39.063,-13.58 40.257,-13.22 41.155,-12.587C42.045,-13.22 43.235,-13.58 44.726,-13.665L44.955,-13.665C48.699,-13.46 50.571,-11.495 50.571,-7.77L50.571,0.013L46.505,0.013L46.505,-7.77C46.505,-9.183 45.988,-9.907 44.955,-9.941L44.726,-9.941C43.769,-9.907 43.256,-9.286 43.188,-8.079Z" style="fill:rgb(53,53,54);"/>
        </g>
        <g transform="matrix(1.342466,0,0,1.328204,103.409254,64.296994)">
            <path d="M25.461,-23.25C24.441,-24.188 23.258,-24.93 21.913,-25.477C20.584,-26.008 19.216,-26.273 17.809,-26.273C16.402,-26.273 15.103,-26.031 13.913,-25.547C12.692,-25.047 11.656,-24.367 10.806,-23.508C9.956,-22.617 9.283,-21.57 8.788,-20.367C8.309,-19.195 8.07,-17.891 8.07,-16.453C8.07,-14.438 8.533,-12.688 9.461,-11.203C10.373,-9.703 11.617,-8.57 13.194,-7.805C14.771,-7.008 16.518,-6.609 18.435,-6.609C19.208,-6.609 20.066,-6.703 21.009,-6.891C21.936,-7.078 22.624,-7.398 23.073,-7.852L23.073,-12.656L19.849,-12.656L16.951,-19.664L31.165,-19.664L31.165,-2.484C30.547,-2.094 29.612,-1.656 28.36,-1.172C27.2,-0.719 26.056,-0.352 24.928,-0.07C23.876,0.211 22.64,0.453 21.217,0.656C19.873,0.844 18.597,0.938 17.391,0.938C14.269,0.938 11.37,0.164 8.696,-1.383C6.006,-2.945 3.888,-5.055 2.342,-7.711C0.781,-10.367 0,-13.281 0,-16.453C0,-19.609 0.781,-22.531 2.342,-25.219C3.888,-27.859 6.006,-29.969 8.696,-31.547C11.37,-33.094 14.269,-33.867 17.391,-33.867C18.922,-33.867 20.483,-33.688 22.075,-33.328C23.637,-32.969 25.113,-32.43 26.504,-31.711C27.927,-30.977 29.163,-30.141 30.215,-29.203L25.461,-23.25Z" style="fill:rgb(53,53,54);"/>
            <path d="M46.299,-24.82C45.804,-24.898 45.302,-24.945 44.792,-24.961L44.374,-24.961C37.542,-24.617 34.125,-21.031 34.125,-14.203L34.125,0L41.545,0L41.545,-14.203C41.545,-16.781 42.488,-18.109 44.374,-18.188L44.792,-18.188C45.41,-18.156 45.913,-18.008 46.299,-17.742L46.299,-24.82Z" style="fill:rgb(53,53,54);"/>
            <path d="M60.715,0.773C58.349,0.773 56.116,0.211 54.013,-0.914C51.911,-2.039 50.241,-3.578 49.004,-5.531C47.752,-7.5 47.126,-9.703 47.126,-12.141C47.126,-13.969 47.489,-15.672 48.216,-17.25C48.943,-18.828 49.94,-20.195 51.207,-21.352C52.49,-22.523 53.951,-23.422 55.59,-24.047C57.259,-24.672 58.968,-24.984 60.715,-24.984C62.477,-24.984 64.193,-24.672 65.862,-24.047C67.486,-23.453 68.946,-22.562 70.245,-21.375C71.528,-20.188 72.525,-18.812 73.236,-17.25C73.963,-15.672 74.326,-13.969 74.326,-12.141C74.326,-10.281 73.971,-8.578 73.26,-7.031C72.548,-5.469 71.544,-4.086 70.245,-2.883C68.931,-1.695 67.47,-0.797 65.862,-0.188C64.239,0.453 62.523,0.773 60.715,0.773ZM54.523,-12.141C54.523,-10.469 55.142,-9.031 56.378,-7.828C57.6,-6.625 59.045,-6.023 60.715,-6.023C62.4,-6.023 63.853,-6.625 65.074,-7.828C66.311,-9.031 66.929,-10.469 66.929,-12.141C66.929,-13.234 66.643,-14.242 66.071,-15.164C65.499,-16.086 64.734,-16.82 63.775,-17.367C62.832,-17.914 61.812,-18.188 60.715,-18.188C59.648,-18.188 58.635,-17.914 57.677,-17.367C56.718,-16.82 55.953,-16.086 55.381,-15.164C54.809,-14.242 54.523,-13.234 54.523,-12.141Z" style="fill:rgb(53,53,54);"/>
            <path d="M85.403,-6.07C83.517,-6.133 82.574,-7.453 82.574,-10.031L82.574,-24L75.153,-24L75.153,-10.031C75.153,-3.234 78.57,0.352 85.403,0.727L85.82,0.727C92.653,0.352 96.069,-3.234 96.069,-10.031L96.069,-24L88.649,-24L88.649,-10.031C88.649,-7.453 87.706,-6.133 85.82,-6.07L85.403,-6.07Z" style="fill:rgb(53,53,54);"/>
            <path d="M104.293,-12.07C104.293,-13.742 104.912,-15.18 106.148,-16.383C107.37,-17.586 108.815,-18.188 110.485,-18.188C112.17,-18.188 113.623,-17.586 114.844,-16.383C116.081,-15.164 116.699,-13.727 116.699,-12.07C116.699,-10.977 116.413,-9.977 115.841,-9.07C115.269,-8.148 114.504,-7.414 113.546,-6.867C112.587,-6.32 111.567,-6.047 110.485,-6.047C109.403,-6.047 108.39,-6.32 107.447,-6.867C106.489,-7.414 105.723,-8.148 105.151,-9.07C104.579,-9.961 104.293,-10.961 104.293,-12.07ZM96.896,9.211L104.293,9.234L104.293,-0.656L105.36,-0.188C107.03,0.422 108.738,0.727 110.485,0.727C112.262,0.727 113.978,0.422 115.633,-0.188C117.271,-0.797 118.732,-1.695 120.015,-2.883C121.298,-4.055 122.295,-5.422 123.007,-6.984C123.733,-8.562 124.096,-10.258 124.096,-12.07C124.096,-13.93 123.741,-15.633 123.03,-17.18C122.319,-18.727 121.314,-20.102 120.015,-21.305C118.701,-22.508 117.24,-23.406 115.633,-24C114.009,-24.641 112.293,-24.961 110.485,-24.961C108.119,-24.961 105.886,-24.398 103.783,-23.273C101.681,-22.164 100.011,-20.633 98.775,-18.68C97.538,-16.773 96.912,-14.625 96.896,-12.234L96.896,9.211Z" style="fill:rgb(53,53,54);"/>
        </g>
    </g>
</svg>
