<?xml version="1.0" encoding="UTF-8" standalone="no"?>
<!DOCTYPE svg PUBLIC "-//W3C//DTD SVG 1.1//EN" "http://www.w3.org/Graphics/SVG/1.1/DTD/svg11.dtd">
<svg width="100%" height="100%" viewBox="0 0 470 90" version="1.1" xmlns="http://www.w3.org/2000/svg" xmlns:xlink="http://www.w3.org/1999/xlink" xml:space="preserve" xmlns:serif="http://www.serif.com/" style="fill-rule:evenodd;clip-rule:evenodd;stroke-linejoin:round;stroke-miterlimit:2;">
    <g transform="matrix(1.046512,0,0,1.046512,-10.465116,-12.034884)">
        <g transform="matrix(1,0,0,1,3.822222,4.777778)">
            <circle cx="45" cy="55" r="9" style="fill:rgb(80,70,230);"/>
        </g>
        <g transform="matrix(1,0,0,1,3.822222,4.777778)">
            <path d="M45,55L75,25" style="fill:none;fill-rule:nonzero;"/>
        </g>
        <g transform="matrix(1,0,0,1,3.822222,4.777778)">
            <path d="M46.858,56.858L43.142,53.142L73.142,23.142L76.858,26.858L46.858,56.858Z" style="fill:rgb(80,70,230);"/>
        </g>
        <g transform="matrix(1,0,0,1,3.822222,4.777778)">
            <circle cx="75" cy="25" r="7" style="fill:rgb(80,70,230);"/>
        </g>
        <g transform="matrix(1,0,0,1,3.822222,4.777778)">
            <path d="M45,55L85,70" style="fill:none;fill-rule:nonzero;"/>
        </g>
        <g transform="matrix(1,0,0,1,3.822222,4.777778)">
            <path d="M44.329,56.789L45.671,53.211L85.671,68.211L84.329,71.789L44.329,56.789Z" style="fill:rgb(80,70,230);"/>
        </g>
        <g transform="matrix(1,0,0,1,3.822222,4.777778)">
            <circle cx="85" cy="70" r="5" style="fill:rgb(80,70,230);"/>
        </g>
        <g transform="matrix(1,0,0,1,3.822222,4.777778)">
            <path d="M45,55L30,80" style="fill:none;fill-rule:nonzero;"/>
        </g>
        <g transform="matrix(1,0,0,1,3.822222,4.777778)">
            <path d="M41.927,53.156L48.073,56.844L33.073,81.844L26.927,78.156L41.927,53.156Z" style="fill:rgb(80,70,230);"/>
        </g>
        <g transform="matrix(1,0,0,1,3.822222,4.777778)">
            <circle cx="30" cy="80" r="8" style="fill:rgb(80,70,230);"/>
        </g>
        <g transform="matrix(1,0,0,1,3.822222,4.777778)">
            <path d="M45,55L15,40" style="fill:none;fill-rule:nonzero;"/>
        </g>
        <g transform="matrix(1,0,0,1,3.822222,4.777778)">
            <path d="M45.534,53.932L44.466,56.068L14.466,41.068L15.534,38.932L45.534,53.932Z" style="fill:rgb(80,70,230);"/>
        </g>
        <g transform="matrix(1,0,0,1,3.822222,4.777778)">
            <circle cx="15" cy="40" r="4.5" style="fill:rgb(80,70,230);"/>
        </g>
        <g transform="matrix(1,0,0,1,3.822222,4.777778)">
            <path d="M45,55L55,15" style="fill:rgb(80,70,230);fill-rule:nonzero;"/>
        </g>
        <g transform="matrix(1,0,0,1,3.822222,4.777778)">
            <path d="M46.622,55.406L43.378,54.594L53.378,14.594L56.622,15.406L46.622,55.406Z" style="fill:rgb(80,70,230);"/>
        </g>
        <g transform="matrix(1,0,0,1,3.822222,4.777778)">
            <circle cx="55" cy="15" r="4" style="fill:rgb(80,70,230);"/>
        </g>
        <g transform="matrix(1,0,0,1,3.822222,4.777778)">
            <path d="M45,55L25,25" style="fill:none;fill-rule:nonzero;"/>
        </g>
        <g transform="matrix(1,0,0,1,3.822222,4.777778)">
            <path d="M46.789,53.807L43.211,56.193L23.211,26.193L26.789,23.807L46.789,53.807Z" style="fill:rgb(80,70,230);"/>
        </g>
        <g transform="matrix(1,0,0,1,3.822222,4.777778)">
            <circle cx="25" cy="25" r="5" style="fill:rgb(80,70,230);"/>
        </g>
        <g transform="matrix(1,0,0,1,3.822222,4.777778)">
            <path d="M45,55L70,45" style="fill:none;fill-rule:nonzero;"/>
        </g>
        <g transform="matrix(1,0,0,1,3.822222,4.777778)">
            <path d="M45.444,56.109L44.556,53.891L69.556,43.891L70.444,46.109L45.444,56.109Z" style="fill:rgb(80,70,230);"/>
        </g>
        <g transform="matrix(1,0,0,1,3.822222,4.777778)">
            <circle cx="70" cy="45" r="3" style="fill:rgb(80,70,230);"/>
        </g>
    </g>
    <g transform="matrix(1.541821,0,0,1.541821,277.04649,69.457573)">
        <path d="M17.882,-1.65L1.65,-1.65L1.65,-31.589L6.506,-31.603L6.506,-5.944L19.115,-5.944L17.882,-1.65Z" style="fill:rgb(80,70,230);"/>
        <g transform="matrix(1,0,0,1,-4.049924,0)">
            <path d="M28.104,-22.321L28.104,-1.603L23.928,-1.603L23.928,-22.308L28.104,-22.321ZM28.128,-30.773C28.128,-30.342 28.042,-29.957 27.844,-29.624C27.639,-29.279 27.356,-29.001 27.002,-28.786C26.666,-28.583 26.294,-28.486 25.887,-28.486C25.484,-28.486 25.119,-28.574 24.794,-28.764C24.443,-28.978 24.167,-29.258 23.965,-29.606C23.754,-29.972 23.646,-30.361 23.646,-30.773C23.646,-31.178 23.736,-31.55 23.923,-31.886C24.156,-32.26 24.439,-32.548 24.785,-32.754C25.112,-32.948 25.481,-33.038 25.887,-33.038C26.297,-33.038 26.674,-32.946 27.014,-32.753C27.356,-32.547 27.625,-32.267 27.836,-31.913C28.034,-31.568 28.128,-31.188 28.128,-30.773Z" style="fill:rgb(80,70,230);"/>
        </g>
        <g transform="matrix(1,0,0,1,-7.408963,0)">
            <path d="M34.546,-5.183C36.043,-4.176 37.762,-3.67 39.704,-3.67C43.253,-3.67 44.706,-5.205 44.706,-7.289C44.706,-8.545 43.883,-9.807 41.628,-10.407L41.603,-10.414C40.712,-10.621 39.336,-10.968 37.451,-11.463C36.208,-11.79 35.156,-12.387 34.302,-13.267C33.503,-14.089 33.198,-15.381 33.198,-17.086C33.198,-18.415 33.504,-19.548 34.166,-20.468C34.86,-21.408 35.756,-22.097 36.854,-22.541L36.855,-22.541C38.089,-23.043 39.437,-23.288 40.899,-23.288C41.696,-23.288 42.506,-23.177 43.328,-22.959C44.274,-22.666 45.106,-22.313 45.844,-21.889L45.852,-21.885C46.118,-21.736 46.367,-21.586 46.606,-21.43L44.746,-19.581C43.585,-20.192 42.349,-20.494 41.04,-20.494C38.008,-20.494 36.835,-19.111 36.835,-17.414C36.835,-15.902 37.724,-14.622 39.951,-14.017L39.953,-14.017C41.359,-13.637 42.772,-13.282 44.193,-12.951C45.418,-12.639 46.449,-12.075 47.271,-11.241C48.07,-10.43 48.367,-9.123 48.367,-7.383C48.367,-6.059 48.032,-4.912 47.327,-3.953L47.324,-3.949C46.596,-2.944 45.622,-2.206 44.409,-1.718L44.395,-1.713C43.073,-1.154 41.717,-0.876 40.313,-0.876C39.074,-0.876 37.955,-0.973 36.957,-1.173L36.946,-1.175C36,-1.35 35.125,-1.643 34.311,-2.057L34.301,-2.062C33.813,-2.302 33.322,-2.581 32.82,-2.902L34.546,-5.183Z" style="fill:rgb(80,70,230);"/>
        </g>
        <g transform="matrix(1,0,0,1,-11.74992,0.018985)">
            <path d="M63.949,-0.877C62.057,-0.888 60.474,-1.177 59.209,-1.79L59.206,-1.791C58.033,-2.353 57.148,-3.198 56.551,-4.332L56.549,-4.335C55.891,-5.572 55.593,-7.153 55.593,-9.07L55.593,-19.251L51.137,-19.251L51.957,-22.374L55.593,-22.374L55.593,-31.598L59.769,-31.571L59.769,-22.374L64.256,-22.374L63.447,-19.251L59.769,-19.251L59.769,-9.656C59.769,-8.36 60.141,-7.338 60.789,-6.56C61.636,-5.545 63.04,-4.884 65.091,-4.823L63.949,-0.877Z" style="fill:rgb(80,70,230);"/>
        </g>
        <g transform="matrix(1,0,0,1,-16.376354,0.049779)">
            <path d="M81.799,-0.876C79.681,-0.876 77.68,-1.375 75.797,-2.372C73.933,-3.359 72.449,-4.707 71.352,-6.421L71.352,-6.422C70.256,-8.126 69.714,-10.033 69.714,-12.141C69.714,-13.719 70.028,-15.191 70.662,-16.554C71.301,-17.928 72.179,-19.12 73.295,-20.127C74.438,-21.159 75.738,-21.95 77.197,-22.501C78.696,-23.056 80.23,-23.334 81.799,-23.334C83.384,-23.334 84.927,-23.056 86.429,-22.5L86.435,-22.498C87.878,-21.975 89.171,-21.195 90.321,-20.155C91.451,-19.12 92.33,-17.922 92.956,-16.56L92.958,-16.557C93.593,-15.191 93.907,-13.719 93.907,-12.141C93.907,-10.535 93.603,-9.062 92.982,-7.726L92.981,-7.724C92.353,-6.359 91.467,-5.155 90.324,-4.106C89.154,-3.061 87.854,-2.269 86.423,-1.732L86.412,-1.728C84.95,-1.158 83.416,-0.876 81.799,-0.876ZM73.891,-12.141C73.891,-10.011 74.677,-8.176 76.268,-6.643C77.825,-5.127 79.67,-4.374 81.799,-4.374C83.945,-4.374 85.797,-5.128 87.353,-6.643C88.944,-8.176 89.73,-10.011 89.73,-12.141C89.73,-13.552 89.356,-14.851 88.611,-16.041C87.886,-17.196 86.918,-18.118 85.704,-18.804C84.507,-19.49 83.203,-19.837 81.799,-19.837C80.436,-19.837 79.142,-19.495 77.917,-18.804C76.703,-18.118 75.735,-17.196 75.01,-16.041C74.265,-14.851 73.891,-13.552 73.891,-12.141Z" style="fill:rgb(80,70,230);"/>
        </g>
    </g>
    <g transform="matrix(1.384725,0,0,1.384725,103.786207,66.868804)">
        <path d="M25.734,-23.25C24.703,-24.188 23.508,-24.93 22.148,-25.477C20.805,-26.008 19.422,-26.273 18,-26.273C16.578,-26.273 15.266,-26.031 14.062,-25.547C12.828,-25.047 11.781,-24.367 10.922,-23.508C10.062,-22.617 9.383,-21.57 8.883,-20.367C8.398,-19.195 8.156,-17.891 8.156,-16.453C8.156,-14.438 8.625,-12.688 9.562,-11.203C10.484,-9.703 11.742,-8.57 13.336,-7.805C14.93,-7.008 16.695,-6.609 18.633,-6.609C19.414,-6.609 20.281,-6.703 21.234,-6.891C22.172,-7.078 22.867,-7.398 23.32,-7.852L23.32,-12.656L20.062,-12.656L17.133,-19.664L31.5,-19.664L31.5,-2.484C30.875,-2.094 29.93,-1.656 28.664,-1.172C27.492,-0.719 26.336,-0.352 25.195,-0.07C24.133,0.211 22.883,0.453 21.445,0.656C20.086,0.844 18.797,0.938 17.578,0.938C14.422,0.938 11.492,0.164 8.789,-1.383C6.07,-2.945 3.93,-5.055 2.367,-7.711C0.789,-10.367 0,-13.281 0,-16.453C0,-19.609 0.789,-22.531 2.367,-25.219C3.93,-27.859 6.07,-29.969 8.789,-31.547C11.492,-33.094 14.422,-33.867 17.578,-33.867C19.125,-33.867 20.703,-33.688 22.312,-33.328C23.891,-32.969 25.383,-32.43 26.789,-31.711C28.227,-30.977 29.477,-30.141 30.539,-29.203L25.734,-23.25Z" style="fill-rule:nonzero;"/>
        <path d="M46.629,-24.82C46.129,-24.898 45.622,-24.945 45.106,-24.961L44.684,-24.961C37.778,-24.617 34.325,-21.031 34.325,-14.203L34.325,0L41.825,0L41.825,-14.203C41.825,-16.781 42.778,-18.109 44.684,-18.188L45.106,-18.188C45.731,-18.156 46.239,-18.008 46.629,-17.742L46.629,-24.82Z" style="fill-rule:nonzero;"/>
        <path d="M61.056,0.773C58.665,0.773 56.407,0.211 54.282,-0.914C52.157,-2.039 50.47,-3.578 49.22,-5.531C47.954,-7.5 47.321,-9.703 47.321,-12.141C47.321,-13.969 47.688,-15.672 48.423,-17.25C49.157,-18.828 50.165,-20.195 51.446,-21.352C52.743,-22.523 54.22,-23.422 55.876,-24.047C57.563,-24.672 59.29,-24.984 61.056,-24.984C62.837,-24.984 64.571,-24.672 66.259,-24.047C67.899,-23.453 69.376,-22.562 70.688,-21.375C71.985,-20.188 72.993,-18.812 73.712,-17.25C74.446,-15.672 74.813,-13.969 74.813,-12.141C74.813,-10.281 74.454,-8.578 73.735,-7.031C73.017,-5.469 72.001,-4.086 70.688,-2.883C69.36,-1.695 67.884,-0.797 66.259,-0.188C64.618,0.453 62.884,0.773 61.056,0.773ZM54.798,-12.141C54.798,-10.469 55.423,-9.031 56.673,-7.828C57.907,-6.625 59.368,-6.023 61.056,-6.023C62.759,-6.023 64.227,-6.625 65.462,-7.828C66.712,-9.031 67.337,-10.469 67.337,-12.141C67.337,-13.234 67.048,-14.242 66.47,-15.164C65.892,-16.086 65.118,-16.82 64.149,-17.367C63.196,-17.914 62.165,-18.188 61.056,-18.188C59.977,-18.188 58.954,-17.914 57.985,-17.367C57.017,-16.82 56.243,-16.086 55.665,-15.164C55.087,-14.242 54.798,-13.234 54.798,-12.141Z" style="fill-rule:nonzero;"/>
        <path d="M85.865,-6.07C83.958,-6.133 83.005,-7.453 83.005,-10.031L83.005,-24L75.505,-24L75.505,-10.031C75.505,-3.234 78.958,0.352 85.865,0.727L86.287,0.727C93.193,0.352 96.646,-3.234 96.646,-10.031L96.646,-24L89.146,-24L89.146,-10.031C89.146,-7.453 88.193,-6.133 86.287,-6.07L85.865,-6.07Z" style="fill-rule:nonzero;"/>
        <path d="M104.814,-12.07C104.814,-13.742 105.439,-15.18 106.689,-16.383C107.924,-17.586 109.385,-18.188 111.072,-18.188C112.775,-18.188 114.244,-17.586 115.478,-16.383C116.728,-15.164 117.353,-13.727 117.353,-12.07C117.353,-10.977 117.064,-9.977 116.486,-9.07C115.908,-8.148 115.135,-7.414 114.166,-6.867C113.197,-6.32 112.166,-6.047 111.072,-6.047C109.978,-6.047 108.955,-6.32 108.002,-6.867C107.033,-7.414 106.26,-8.148 105.682,-9.07C105.103,-9.961 104.814,-10.961 104.814,-12.07ZM97.338,9.211L104.814,9.234L104.814,-0.656L105.892,-0.188C107.58,0.422 109.307,0.727 111.072,0.727C112.869,0.727 114.603,0.422 116.275,-0.188C117.932,-0.797 119.408,-1.695 120.705,-2.883C122.002,-4.055 123.01,-5.422 123.728,-6.984C124.463,-8.562 124.83,-10.258 124.83,-12.07C124.83,-13.93 124.471,-15.633 123.752,-17.18C123.033,-18.727 122.017,-20.102 120.705,-21.305C119.377,-22.508 117.9,-23.406 116.275,-24C114.635,-24.641 112.9,-24.961 111.072,-24.961C108.682,-24.961 106.424,-24.398 104.299,-23.273C102.174,-22.164 100.486,-20.633 99.236,-18.68C97.986,-16.773 97.353,-14.625 97.338,-12.234L97.338,9.211Z" style="fill-rule:nonzero;"/>
    </g>
    <g transform="matrix(1.142329,0,0,1.142329,340.415211,195.192185)">
        <path d="M47.296,-113.888C47.296,-114.366 47.418,-114.801 47.662,-115.192C47.916,-115.602 48.243,-115.919 48.643,-116.144C49.054,-116.378 49.488,-116.495 49.947,-116.495C50.406,-116.495 50.841,-116.378 51.251,-116.144C51.651,-115.9 51.973,-115.577 52.218,-115.177C52.462,-114.786 52.584,-114.357 52.584,-113.888C52.584,-113.107 52.33,-112.462 51.822,-111.954C51.305,-111.437 50.68,-111.178 49.947,-111.178C49.459,-111.178 49.014,-111.295 48.614,-111.529C48.204,-111.764 47.882,-112.091 47.647,-112.511C47.413,-112.941 47.296,-113.4 47.296,-113.888Z" style="fill-rule:nonzero;"/>
        <path d="M64.559,-122.047C64.139,-122.399 63.68,-122.662 63.182,-122.838C62.665,-123.014 62.118,-123.102 61.542,-123.102C60.467,-123.102 59.559,-122.755 58.817,-122.062C58.065,-121.368 57.689,-120.509 57.689,-119.484C57.689,-118.683 57.85,-117.965 58.172,-117.33C58.485,-116.695 58.949,-116.193 59.564,-115.821C60.16,-115.441 60.848,-115.25 61.63,-115.25C62.782,-115.25 63.768,-115.616 64.588,-116.349L67.152,-113.097C66.781,-112.706 66.263,-112.36 65.599,-112.057C64.925,-111.754 64.232,-111.529 63.519,-111.383C62.806,-111.237 62.147,-111.163 61.542,-111.163C59.842,-111.163 58.343,-111.52 57.045,-112.233C55.746,-112.955 54.75,-113.903 54.056,-115.074C53.363,-116.266 53.016,-117.54 53.016,-118.898C53.016,-120.138 53.226,-121.261 53.646,-122.267C54.076,-123.292 54.667,-124.171 55.419,-124.903C56.161,-125.616 57.064,-126.178 58.129,-126.588C59.183,-126.988 60.321,-127.189 61.542,-127.189C62.538,-127.189 63.509,-127.032 64.457,-126.72C65.414,-126.398 66.258,-125.944 66.991,-125.358L64.559,-122.047Z" style="fill-rule:nonzero;"/>
        <path d="M74.528,-111.09C73.034,-111.09 71.622,-111.442 70.294,-112.145C68.966,-112.848 67.912,-113.81 67.13,-115.03C66.339,-116.261 65.944,-117.638 65.944,-119.161C65.944,-120.304 66.173,-121.368 66.632,-122.355C67.091,-123.341 67.721,-124.195 68.522,-124.918C69.332,-125.651 70.255,-126.212 71.29,-126.603C72.345,-126.993 73.424,-127.189 74.528,-127.189C75.641,-127.189 76.725,-126.993 77.78,-126.603C78.805,-126.232 79.728,-125.675 80.548,-124.933C81.359,-124.191 81.989,-123.331 82.438,-122.355C82.897,-121.368 83.126,-120.304 83.126,-119.161C83.126,-117.999 82.902,-116.935 82.453,-115.968C82.003,-114.991 81.369,-114.127 80.548,-113.375C79.718,-112.633 78.795,-112.071 77.78,-111.691C76.754,-111.29 75.67,-111.09 74.528,-111.09ZM70.617,-119.161C70.617,-118.116 71.007,-117.218 71.788,-116.466C72.56,-115.714 73.473,-115.338 74.528,-115.338C75.592,-115.338 76.51,-115.714 77.282,-116.466C78.063,-117.218 78.454,-118.116 78.454,-119.161C78.454,-119.845 78.273,-120.475 77.912,-121.051C77.55,-121.627 77.067,-122.086 76.461,-122.428C75.866,-122.77 75.221,-122.941 74.528,-122.941C73.854,-122.941 73.214,-122.77 72.609,-122.428C72.003,-122.086 71.52,-121.627 71.159,-121.051C70.797,-120.475 70.617,-119.845 70.617,-119.161Z" style="fill-rule:nonzero;"/>
        <path d="M96.83,-120.787L96.83,-111.559L92.128,-111.559L92.128,-120.787C92.05,-122.164 91.459,-122.872 90.356,-122.911L90.092,-122.911C88.901,-122.872 88.305,-122.047 88.305,-120.436L88.305,-111.559L83.617,-111.559L83.617,-120.436C83.617,-124.684 85.776,-126.925 90.092,-127.159L90.356,-127.159C92.074,-127.062 93.451,-126.652 94.487,-125.929C95.512,-126.652 96.884,-127.062 98.603,-127.159L98.866,-127.159C103.183,-126.925 105.341,-124.684 105.341,-120.436L105.341,-111.559L100.654,-111.559L100.654,-120.436C100.654,-122.047 100.058,-122.872 98.866,-122.911L98.603,-122.911C97.499,-122.872 96.908,-122.164 96.83,-120.787Z" style="fill-rule:nonzero;"/>
    </g>
</svg>
